<svg width="17" height="17" viewBox="0 0 17 17" fill="none" xmlns="http://www.w3.org/2000/svg">
<g clip-path="url(#clip0_731_7243)">
<path d="M8.66663 0.644012C13.0848 0.644012 16.6666 4.22583 16.6666 8.64401C16.6666 12.196 14.3506 15.2058 11.147 16.2498C11.1477 16.2469 11.1492 16.2422 11.1492 16.2422C11.1492 16.2422 10.6092 15.9891 10.6208 15.5375C10.6335 15.0404 10.6208 13.8807 10.6208 13.4549C10.6208 12.724 10.1583 12.2062 10.1583 12.2062C10.1583 12.2062 13.7863 12.2469 13.7863 8.37601C13.7863 6.88256 13.0055 6.1051 13.0055 6.1051C13.0055 6.1051 13.4157 4.51056 12.8637 3.83419C12.2452 3.76729 11.1368 4.42547 10.6637 4.7331C10.6637 4.7331 9.9139 4.42547 8.66663 4.42547C7.41935 4.42547 6.66954 4.7331 6.66954 4.7331C6.19644 4.42547 5.08844 3.76729 4.46954 3.83419C3.91754 4.51056 4.32772 6.1051 4.32772 6.1051C4.32772 6.1051 3.54699 6.88219 3.54699 8.37601C3.54699 12.2469 7.17499 12.2062 7.17499 12.2062C7.17499 12.2062 6.80954 12.6193 6.72954 13.2266C6.47644 13.3124 6.10372 13.4186 5.80263 13.4186C5.01535 13.4186 4.41644 12.6531 4.19681 12.2993C3.98044 11.9502 3.53681 11.6571 3.12299 11.6571C2.85063 11.6571 2.71754 11.7935 2.71754 11.9491C2.71754 12.1047 3.09935 12.2135 3.35135 12.5022C3.88263 13.1109 3.87317 14.4796 5.76626 14.4796C5.97172 14.4796 6.39135 14.4291 6.70735 14.3866C6.70553 14.8175 6.70481 15.2724 6.71172 15.5382C6.72299 15.9898 6.18335 16.2429 6.18335 16.2429C6.18335 16.2429 6.18481 16.2473 6.18554 16.2506C2.98263 15.2058 0.666626 12.196 0.666626 8.64401C0.666626 4.22583 4.24844 0.644012 8.66663 0.644012Z" fill="white"/>
</g>
<defs>
<clipPath id="clip0_731_7243">
<rect width="16" height="16" fill="white" transform="translate(0.666626 0.644012)"/>
</clipPath>
</defs>
</svg>
