<svg width="16" height="17" viewBox="0 0 16 17" fill="none" xmlns="http://www.w3.org/2000/svg">
<g clip-path="url(#clip0_731_7215)">
<path d="M15.9915 8.79718C15.9915 8.12637 15.9371 7.63686 15.8193 7.12923H8.1593V10.1569H12.6555C12.5649 10.9093 12.0754 12.0425 10.9876 12.8039L10.9723 12.9053L13.3943 14.7815L13.5621 14.7982C15.1031 13.375 15.9915 11.281 15.9915 8.79718Z" fill="#4285F4"/>
<path d="M8.1594 16.7744C10.3622 16.7744 12.2114 16.0492 13.5622 14.7982L10.9877 12.8039C10.2987 13.2843 9.37409 13.6197 8.1594 13.6197C6.00194 13.6197 4.17082 12.1966 3.51807 10.2295L3.42239 10.2376L0.904028 12.1866L0.871094 12.2781C2.21271 14.9432 4.96848 16.7744 8.1594 16.7744Z" fill="#34A853"/>
<path d="M3.51805 10.2295C3.34582 9.72184 3.24614 9.17789 3.24614 8.61589C3.24614 8.05382 3.34582 7.50994 3.50899 7.0023L3.50443 6.89419L0.954506 4.91389L0.871077 4.95358C0.318134 6.05953 0.000854492 7.30146 0.000854492 8.61589C0.000854492 9.93032 0.318134 11.1722 0.871077 12.2781L3.51805 10.2295Z" fill="#FBBC05"/>
<path d="M8.1594 3.61196C9.69137 3.61196 10.7248 4.27371 11.314 4.82671L13.6165 2.57857C12.2024 1.26414 10.3622 0.457352 8.1594 0.457352C4.96848 0.457352 2.21271 2.28848 0.871094 4.95358L3.50901 7.0023C4.17082 5.03519 6.00194 3.61196 8.1594 3.61196Z" fill="#EB4335"/>
</g>
<defs>
<clipPath id="clip0_731_7215">
<rect width="16" height="16.3733" fill="white" transform="translate(0 0.457352)"/>
</clipPath>
</defs>
</svg>
