<svg width="1387" height="405" viewBox="0 0 1387 405" fill="none" xmlns="http://www.w3.org/2000/svg">
<path d="M187.199 102.937L166.448 60.0645L0 405H41.5028L187.199 102.937Z" fill="#FFFEF9"/>
<path d="M266.055 146.026L195.5 0L174.749 42.6545L224.77 146.026L99.6067 405H391L375.054 371.921H157.055L266.055 146.026Z" fill="#00DE8F"/>
<path d="M369.375 360.169L274.355 163.219L253.604 206.308L327.872 360.169H369.375Z" fill="#FFFEF9"/>
<path d="M525.784 284.296C523.651 284.296 521.987 283.698 520.792 282.504C519.597 281.309 519 279.645 519 277.512V125.96C519 123.826 519.597 122.162 520.792 120.968C521.987 119.773 523.651 119.176 525.784 119.176C527.832 119.176 529.453 119.773 530.648 120.968C531.843 122.162 532.44 123.826 532.44 125.96V277.512C532.44 279.645 531.843 281.309 530.648 282.504C529.453 283.698 527.832 284.296 525.784 284.296Z" fill="white"/>
<path d="M660.25 284.296C655.557 284.296 653.21 282.034 653.21 277.512C653.21 276.317 653.466 275.208 653.978 274.184C654.575 273.074 655.386 271.752 656.41 270.216L762.01 130.184V132.744H686.874C679.535 132.744 673.903 134.194 669.978 137.096C666.138 139.912 663.791 144.477 662.938 150.792C662.682 152.925 661.999 154.546 660.89 155.656C659.781 156.765 658.117 157.32 655.898 157.32C653.765 157.32 652.101 156.722 650.906 155.528C649.711 154.248 649.199 152.498 649.37 150.28C650.479 140.125 654.191 132.445 660.506 127.24C666.906 121.949 675.695 119.304 686.874 119.304H771.61C776.133 119.304 778.394 121.565 778.394 126.088C778.394 127.538 778.181 128.861 777.754 130.056C777.413 131.165 776.687 132.445 775.578 133.896L670.106 274.696V270.856H747.802C755.311 270.856 760.986 269.448 764.826 266.632C768.666 263.816 771.013 259.208 771.866 252.808C772.207 250.674 772.933 249.053 774.042 247.944C775.151 246.834 776.73 246.28 778.778 246.28C780.997 246.28 782.703 246.92 783.898 248.2C785.178 249.394 785.69 251.101 785.434 253.32C783.215 273.97 770.671 284.296 747.802 284.296H660.25Z" fill="white"/>
<path d="M909.124 284.296C906.991 284.296 905.327 283.698 904.132 282.504C902.937 281.309 902.34 279.645 902.34 277.512V125.96C902.34 123.826 902.937 122.162 904.132 120.968C905.327 119.773 906.991 119.176 909.124 119.176C911.172 119.176 912.793 119.773 913.988 120.968C915.183 122.162 915.78 123.826 915.78 125.96V277.512C915.78 279.645 915.183 281.309 913.988 282.504C912.793 283.698 911.172 284.296 909.124 284.296Z" fill="white"/>
<path d="M1052.29 284.296C1047.77 284.296 1045.51 282.034 1045.51 277.512V126.088C1045.51 121.565 1047.77 119.304 1052.29 119.304H1148.17C1152.69 119.304 1154.95 121.565 1154.95 126.088C1154.95 130.525 1152.69 132.744 1148.17 132.744H1058.95V194.056H1117.96C1122.48 194.056 1124.74 196.274 1124.74 200.712C1124.74 205.234 1122.48 207.496 1117.96 207.496H1058.95V270.856H1148.17C1152.69 270.856 1154.95 273.074 1154.95 277.512C1154.95 282.034 1152.69 284.296 1148.17 284.296H1052.29Z" fill="white"/>
<path d="M1382.55 284.552C1380.67 285.661 1378.96 286.045 1377.43 285.704C1375.89 285.362 1374.52 284.296 1373.33 282.504L1331.35 215.688H1284.37V277.512C1284.37 282.034 1282.15 284.296 1277.71 284.296C1273.19 284.296 1270.93 282.034 1270.93 277.512V126.088C1270.93 121.565 1273.19 119.304 1277.71 119.304H1337.62C1352.21 119.304 1363.22 123.058 1370.64 130.568C1378.15 138.077 1381.91 149.128 1381.91 163.72V171.4C1381.91 184.285 1378.96 194.397 1373.07 201.736C1367.19 209.074 1358.48 213.554 1346.96 215.176L1384.72 275.336C1387.11 279.261 1386.39 282.333 1382.55 284.552ZM1284.37 202.248H1337.62C1348.37 202.248 1356.18 199.816 1361.04 194.952C1365.99 190.002 1368.47 182.152 1368.47 171.4V163.72C1368.47 152.882 1365.99 145.032 1361.04 140.168C1356.18 135.218 1348.37 132.744 1337.62 132.744H1284.37V202.248Z" fill="white"/>
</svg>
