<svg width="1596" height="510" viewBox="0 0 1596 510" fill="none" xmlns="http://www.w3.org/2000/svg">
<path d="M0.056818 197V10.8182H73.5114C87.572 10.8182 99.572 13.3333 109.511 18.3636C119.511 23.3333 127.117 30.3939 132.33 39.5455C137.602 48.6364 140.239 59.3333 140.239 71.6364C140.239 84 137.572 94.6364 132.239 103.545C126.905 112.394 119.178 119.182 109.057 123.909C98.9962 128.636 86.8144 131 72.5114 131H23.3295V99.3636H66.1477C73.6629 99.3636 79.9053 98.3333 84.875 96.2727C89.8447 94.2121 93.5417 91.1212 95.9659 87C98.4508 82.8788 99.6932 77.7576 99.6932 71.6364C99.6932 65.4545 98.4508 60.2424 95.9659 56C93.5417 51.7576 89.8144 48.5454 84.7841 46.3636C79.8144 44.1212 73.5417 43 65.9659 43H39.4205V197H0.056818ZM100.602 112.273L146.875 197H103.42L58.1477 112.273H100.602ZM228.716 199.727C214.352 199.727 201.989 196.818 191.625 191C181.322 185.121 173.383 176.818 167.807 166.091C162.231 155.303 159.443 142.545 159.443 127.818C159.443 113.455 162.231 100.848 167.807 90C173.383 79.1515 181.231 70.697 191.352 64.6364C201.534 58.5758 213.473 55.5455 227.17 55.5455C236.383 55.5455 244.958 57.0303 252.898 60C260.898 62.9091 267.867 67.303 273.807 73.1818C279.807 79.0606 284.473 86.4545 287.807 95.3636C291.14 104.212 292.807 114.576 292.807 126.455V137.091H174.898V113.091H256.352C256.352 107.515 255.14 102.576 252.716 98.2727C250.292 93.9697 246.928 90.6061 242.625 88.1818C238.383 85.697 233.443 84.4545 227.807 84.4545C221.928 84.4545 216.716 85.8182 212.17 88.5454C207.686 91.2121 204.17 94.8182 201.625 99.3636C199.08 103.848 197.777 108.848 197.716 114.364V137.182C197.716 144.091 198.989 150.061 201.534 155.091C204.14 160.121 207.807 164 212.534 166.727C217.261 169.455 222.867 170.818 229.352 170.818C233.655 170.818 237.595 170.212 241.17 169C244.746 167.788 247.807 165.97 250.352 163.545C252.898 161.121 254.837 158.152 256.17 154.636L291.989 157C290.17 165.606 286.443 173.121 280.807 179.545C275.231 185.909 268.019 190.879 259.17 194.455C250.383 197.97 240.231 199.727 228.716 199.727ZM381.17 199.727C366.867 199.727 354.564 196.697 344.261 190.636C334.019 184.515 326.14 176.03 320.625 165.182C315.17 154.333 312.443 141.848 312.443 127.727C312.443 113.424 315.201 100.879 320.716 90.0909C326.292 79.2424 334.201 70.7879 344.443 64.7273C354.686 58.6061 366.867 55.5455 380.989 55.5455C393.17 55.5455 403.837 57.7576 412.989 62.1818C422.14 66.6061 429.383 72.8182 434.716 80.8182C440.049 88.8182 442.989 98.2121 443.534 109H406.989C405.958 102.03 403.231 96.4242 398.807 92.1818C394.443 87.8788 388.716 85.7273 381.625 85.7273C375.625 85.7273 370.383 87.3636 365.898 90.6364C361.473 93.8485 358.019 98.5455 355.534 104.727C353.049 110.909 351.807 118.394 351.807 127.182C351.807 136.091 353.019 143.667 355.443 149.909C357.928 156.152 361.413 160.909 365.898 164.182C370.383 167.455 375.625 169.091 381.625 169.091C386.049 169.091 390.019 168.182 393.534 166.364C397.11 164.545 400.049 161.909 402.352 158.455C404.716 154.939 406.261 150.727 406.989 145.818H443.534C442.928 156.485 440.019 165.879 434.807 174C429.655 182.061 422.534 188.364 413.443 192.909C404.352 197.455 393.595 199.727 381.17 199.727ZM507.057 10.8182V197H468.33V10.8182H507.057ZM577.898 199.636C568.989 199.636 561.049 198.091 554.08 195C547.11 191.848 541.595 187.212 537.534 181.091C533.534 174.909 531.534 167.212 531.534 158C531.534 150.242 532.958 143.727 535.807 138.455C538.655 133.182 542.534 128.939 547.443 125.727C552.352 122.515 557.928 120.091 564.17 118.455C570.473 116.818 577.08 115.667 583.989 115C592.11 114.152 598.655 113.364 603.625 112.636C608.595 111.848 612.201 110.697 614.443 109.182C616.686 107.667 617.807 105.424 617.807 102.455V101.909C617.807 96.1515 615.989 91.697 612.352 88.5454C608.777 85.3939 603.686 83.8182 597.08 83.8182C590.11 83.8182 584.564 85.3636 580.443 88.4545C576.322 91.4848 573.595 95.303 572.261 99.9091L536.443 97C538.261 88.5151 541.837 81.1818 547.17 75C552.504 68.7576 559.383 63.9697 567.807 60.6364C576.292 57.2424 586.11 55.5455 597.261 55.5455C605.019 55.5455 612.443 56.4545 619.534 58.2727C626.686 60.0909 633.019 62.9091 638.534 66.7273C644.11 70.5455 648.504 75.4545 651.716 81.4545C654.928 87.3939 656.534 94.5151 656.534 102.818V197H619.807V177.636H618.716C616.473 182 613.473 185.848 609.716 189.182C605.958 192.455 601.443 195.03 596.17 196.909C590.898 198.727 584.807 199.636 577.898 199.636ZM588.989 172.909C594.686 172.909 599.716 171.788 604.08 169.545C608.443 167.242 611.867 164.152 614.352 160.273C616.837 156.394 618.08 152 618.08 147.091V132.273C616.867 133.061 615.201 133.788 613.08 134.455C611.019 135.061 608.686 135.636 606.08 136.182C603.473 136.667 600.867 137.121 598.261 137.545C595.655 137.909 593.292 138.242 591.17 138.545C586.625 139.212 582.655 140.273 579.261 141.727C575.867 143.182 573.231 145.152 571.352 147.636C569.473 150.061 568.534 153.091 568.534 156.727C568.534 162 570.443 166.03 574.261 168.818C578.14 171.545 583.049 172.909 588.989 172.909ZM686.58 197V57.3636H725.307V197H686.58ZM706.034 39.3636C700.277 39.3636 695.337 37.4545 691.216 33.6364C687.155 29.7576 685.125 25.1212 685.125 19.7273C685.125 14.3939 687.155 9.81818 691.216 6C695.337 2.12121 700.277 0.181808 706.034 0.181808C711.792 0.181808 716.701 2.12121 720.761 6C724.883 9.81818 726.943 14.3939 726.943 19.7273C726.943 25.1212 724.883 29.7576 720.761 33.6364C716.701 37.4545 711.792 39.3636 706.034 39.3636ZM756.33 197V57.3636H793.239V82H794.875C797.784 73.8182 802.633 67.3636 809.42 62.6364C816.208 57.9091 824.33 55.5455 833.784 55.5455C843.36 55.5455 851.511 57.9394 858.239 62.7273C864.966 67.4545 869.451 73.8788 871.693 82H873.148C875.996 74 881.148 67.6061 888.602 62.8182C896.117 57.9697 904.996 55.5455 915.239 55.5455C928.269 55.5455 938.845 59.697 946.966 68C955.148 76.2424 959.239 87.9394 959.239 103.091V197H920.602V110.727C920.602 102.97 918.542 97.1515 914.42 93.2727C910.299 89.3939 905.148 87.4545 898.966 87.4545C891.936 87.4545 886.451 89.697 882.511 94.1818C878.572 98.6061 876.602 104.455 876.602 111.727V197H839.057V109.909C839.057 103.061 837.087 97.6061 833.148 93.5454C829.269 89.4848 824.148 87.4545 817.784 87.4545C813.481 87.4545 809.602 88.5455 806.148 90.7273C802.754 92.8485 800.057 95.8485 798.057 99.7273C796.057 103.545 795.057 108.03 795.057 113.182V197H756.33ZM1072.99 249.364C1068.08 249.364 1063.47 248.97 1059.17 248.182C1054.93 247.455 1051.41 246.515 1048.62 245.364L1057.35 216.455C1061.9 217.848 1065.99 218.606 1069.62 218.727C1073.32 218.848 1076.5 218 1079.17 216.182C1081.9 214.364 1084.11 211.273 1085.81 206.909L1088.08 201L1037.99 57.3636H1078.72L1107.62 159.909H1109.08L1138.26 57.3636H1179.26L1124.99 212.091C1122.38 219.606 1118.84 226.152 1114.35 231.727C1109.93 237.364 1104.32 241.697 1097.53 244.727C1090.75 247.818 1082.56 249.364 1072.99 249.364ZM1257.67 199.727C1243.55 199.727 1231.34 196.727 1221.03 190.727C1210.79 184.667 1202.88 176.242 1197.31 165.455C1191.73 154.606 1188.94 142.03 1188.94 127.727C1188.94 113.303 1191.73 100.697 1197.31 89.9091C1202.88 79.0606 1210.79 70.6364 1221.03 64.6364C1231.34 58.5758 1243.55 55.5455 1257.67 55.5455C1271.79 55.5455 1283.97 58.5758 1294.22 64.6364C1304.52 70.6364 1312.46 79.0606 1318.03 89.9091C1323.61 100.697 1326.4 113.303 1326.4 127.727C1326.4 142.03 1323.61 154.606 1318.03 165.455C1312.46 176.242 1304.52 184.667 1294.22 190.727C1283.97 196.727 1271.79 199.727 1257.67 199.727ZM1257.85 169.727C1264.28 169.727 1269.64 167.909 1273.94 164.273C1278.25 160.576 1281.49 155.545 1283.67 149.182C1285.91 142.818 1287.03 135.576 1287.03 127.455C1287.03 119.333 1285.91 112.091 1283.67 105.727C1281.49 99.3636 1278.25 94.3333 1273.94 90.6364C1269.64 86.9394 1264.28 85.0909 1257.85 85.0909C1251.37 85.0909 1245.91 86.9394 1241.49 90.6364C1237.13 94.3333 1233.82 99.3636 1231.58 105.727C1229.4 112.091 1228.31 119.333 1228.31 127.455C1228.31 135.576 1229.4 142.818 1231.58 149.182C1233.82 155.545 1237.13 160.576 1241.49 164.273C1245.91 167.909 1251.37 169.727 1257.85 169.727ZM1441.12 137.545V57.3636H1479.85V197H1442.67V171.636H1441.22C1438.06 179.818 1432.82 186.394 1425.49 191.364C1418.22 196.333 1409.34 198.818 1398.85 198.818C1389.52 198.818 1381.31 196.697 1374.22 192.455C1367.13 188.212 1361.58 182.182 1357.58 174.364C1353.64 166.545 1351.64 157.182 1351.58 146.273V57.3636H1390.31V139.364C1390.37 147.606 1392.58 154.121 1396.94 158.909C1401.31 163.697 1407.16 166.091 1414.49 166.091C1419.16 166.091 1423.52 165.03 1427.58 162.909C1431.64 160.727 1434.91 157.515 1437.4 153.273C1439.94 149.03 1441.19 143.788 1441.12 137.545ZM1510.83 197V57.3636H1548.38V81.7273H1549.83C1552.38 73.0606 1556.65 66.5151 1562.65 62.0909C1568.65 57.6061 1575.56 55.3636 1583.38 55.3636C1585.31 55.3636 1587.41 55.4848 1589.65 55.7273C1591.89 55.9697 1593.86 56.303 1595.56 56.7273V91.0909C1593.74 90.5454 1591.22 90.0606 1588.01 89.6364C1584.8 89.2121 1581.86 89 1579.19 89C1573.5 89 1568.41 90.2424 1563.92 92.7273C1559.5 95.1515 1555.98 98.5455 1553.38 102.909C1550.83 107.273 1549.56 112.303 1549.56 118V197H1510.83ZM53.125 507L15.125 367.364H54.3068L75.9432 461.182H77.2159L99.7614 367.364H138.216L161.125 460.636H162.307L183.58 367.364H222.67L184.761 507H143.761L119.761 419.182H118.034L94.0341 507H53.125ZM283.148 509.636C274.239 509.636 266.299 508.091 259.33 505C252.36 501.848 246.845 497.212 242.784 491.091C238.784 484.909 236.784 477.212 236.784 468C236.784 460.242 238.208 453.727 241.057 448.455C243.905 443.182 247.784 438.939 252.693 435.727C257.602 432.515 263.178 430.091 269.42 428.455C275.723 426.818 282.33 425.667 289.239 425C297.36 424.152 303.905 423.364 308.875 422.636C313.845 421.848 317.451 420.697 319.693 419.182C321.936 417.667 323.057 415.424 323.057 412.455V411.909C323.057 406.152 321.239 401.697 317.602 398.545C314.027 395.394 308.936 393.818 302.33 393.818C295.36 393.818 289.814 395.364 285.693 398.455C281.572 401.485 278.845 405.303 277.511 409.909L241.693 407C243.511 398.515 247.087 391.182 252.42 385C257.754 378.758 264.633 373.97 273.057 370.636C281.542 367.242 291.36 365.545 302.511 365.545C310.269 365.545 317.693 366.455 324.784 368.273C331.936 370.091 338.269 372.909 343.784 376.727C349.36 380.545 353.754 385.455 356.966 391.455C360.178 397.394 361.784 404.515 361.784 412.818V507H325.057V487.636H323.966C321.723 492 318.723 495.848 314.966 499.182C311.208 502.455 306.693 505.03 301.42 506.909C296.148 508.727 290.057 509.636 283.148 509.636ZM294.239 482.909C299.936 482.909 304.966 481.788 309.33 479.545C313.693 477.242 317.117 474.152 319.602 470.273C322.087 466.394 323.33 462 323.33 457.091V442.273C322.117 443.061 320.451 443.788 318.33 444.455C316.269 445.061 313.936 445.636 311.33 446.182C308.723 446.667 306.117 447.121 303.511 447.545C300.905 447.909 298.542 448.242 296.42 448.545C291.875 449.212 287.905 450.273 284.511 451.727C281.117 453.182 278.481 455.152 276.602 457.636C274.723 460.061 273.784 463.091 273.784 466.727C273.784 472 275.693 476.03 279.511 478.818C283.39 481.545 288.299 482.909 294.239 482.909ZM508.011 407.182L472.557 409.364C471.951 406.333 470.648 403.606 468.648 401.182C466.648 398.697 464.011 396.727 460.739 395.273C457.527 393.758 453.678 393 449.193 393C443.193 393 438.133 394.273 434.011 396.818C429.89 399.303 427.83 402.636 427.83 406.818C427.83 410.152 429.163 412.97 431.83 415.273C434.496 417.576 439.072 419.424 445.557 420.818L470.83 425.909C484.405 428.697 494.527 433.182 501.193 439.364C507.86 445.545 511.193 453.667 511.193 463.727C511.193 472.879 508.496 480.909 503.102 487.818C497.769 494.727 490.436 500.121 481.102 504C471.83 507.818 461.133 509.727 449.011 509.727C430.527 509.727 415.799 505.879 404.83 498.182C393.92 490.424 387.527 479.879 385.648 466.545L423.739 464.545C424.89 470.182 427.678 474.485 432.102 477.455C436.527 480.364 442.193 481.818 449.102 481.818C455.89 481.818 461.345 480.515 465.466 477.909C469.648 475.242 471.769 471.818 471.83 467.636C471.769 464.121 470.284 461.242 467.375 459C464.466 456.697 459.981 454.939 453.92 453.727L429.739 448.909C416.102 446.182 405.951 441.455 399.284 434.727C392.678 428 389.375 419.424 389.375 409C389.375 400.03 391.799 392.303 396.648 385.818C401.557 379.333 408.436 374.333 417.284 370.818C426.193 367.303 436.617 365.545 448.557 365.545C466.193 365.545 480.072 369.273 490.193 376.727C500.375 384.182 506.314 394.333 508.011 407.182ZM609.852 367.364V396.455H525.761V367.364H609.852ZM544.852 333.909H583.58V464.091C583.58 467.667 584.125 470.455 585.216 472.455C586.307 474.394 587.822 475.758 589.761 476.545C591.761 477.333 594.064 477.727 596.67 477.727C598.489 477.727 600.307 477.576 602.125 477.273C603.943 476.909 605.337 476.636 606.307 476.455L612.398 505.273C610.458 505.879 607.731 506.576 604.216 507.364C600.701 508.212 596.428 508.727 591.398 508.909C582.064 509.273 573.883 508.03 566.852 505.182C559.883 502.333 554.458 497.909 550.58 491.909C546.701 485.909 544.792 478.333 544.852 469.182V333.909ZM697.216 509.727C682.852 509.727 670.489 506.818 660.125 501C649.822 495.121 641.883 486.818 636.307 476.091C630.731 465.303 627.943 452.545 627.943 437.818C627.943 423.455 630.731 410.848 636.307 400C641.883 389.152 649.731 380.697 659.852 374.636C670.034 368.576 681.973 365.545 695.67 365.545C704.883 365.545 713.458 367.03 721.398 370C729.398 372.909 736.367 377.303 742.307 383.182C748.307 389.061 752.973 396.455 756.307 405.364C759.64 414.212 761.307 424.576 761.307 436.455V447.091H643.398V423.091H724.852C724.852 417.515 723.64 412.576 721.216 408.273C718.792 403.97 715.428 400.606 711.125 398.182C706.883 395.697 701.943 394.455 696.307 394.455C690.428 394.455 685.216 395.818 680.67 398.545C676.186 401.212 672.67 404.818 670.125 409.364C667.58 413.848 666.277 418.848 666.216 424.364V447.182C666.216 454.091 667.489 460.061 670.034 465.091C672.64 470.121 676.307 474 681.034 476.727C685.761 479.455 691.367 480.818 697.852 480.818C702.155 480.818 706.095 480.212 709.67 479C713.246 477.788 716.307 475.97 718.852 473.545C721.398 471.121 723.337 468.152 724.67 464.636L760.489 467C758.67 475.606 754.943 483.121 749.307 489.545C743.731 495.909 736.519 500.879 727.67 504.455C718.883 507.97 708.731 509.727 697.216 509.727ZM838.034 509.273C827.428 509.273 817.822 506.545 809.216 501.091C800.67 495.576 793.883 487.485 788.852 476.818C783.883 466.091 781.398 452.939 781.398 437.364C781.398 421.364 783.973 408.061 789.125 397.455C794.277 386.788 801.125 378.818 809.67 373.545C818.277 368.212 827.701 365.545 837.943 365.545C845.761 365.545 852.277 366.879 857.489 369.545C862.761 372.152 867.004 375.424 870.216 379.364C873.489 383.242 875.973 387.061 877.67 390.818H878.852V320.818H917.489V507H879.307V484.636H877.67C875.852 488.515 873.277 492.364 869.943 496.182C866.67 499.939 862.398 503.061 857.125 505.545C851.913 508.03 845.549 509.273 838.034 509.273ZM850.307 478.455C856.549 478.455 861.822 476.758 866.125 473.364C870.489 469.909 873.822 465.091 876.125 458.909C878.489 452.727 879.67 445.485 879.67 437.182C879.67 428.879 878.519 421.667 876.216 415.545C873.913 409.424 870.58 404.697 866.216 401.364C861.852 398.03 856.549 396.364 850.307 396.364C843.943 396.364 838.58 398.091 834.216 401.545C829.852 405 826.549 409.788 824.307 415.909C822.064 422.03 820.943 429.121 820.943 437.182C820.943 445.303 822.064 452.485 824.307 458.727C826.61 464.909 829.913 469.758 834.216 473.273C838.58 476.727 843.943 478.455 850.307 478.455ZM1047.31 426.273V507H1008.58V320.818H1046.22V392H1047.85C1051 383.758 1056.09 377.303 1063.12 372.636C1070.16 367.909 1078.97 365.545 1089.58 365.545C1099.28 365.545 1107.73 367.667 1114.94 371.909C1122.22 376.091 1127.85 382.121 1131.85 390C1135.91 397.818 1137.91 407.182 1137.85 418.091V507H1099.12V425C1099.19 416.394 1097 409.697 1092.58 404.909C1088.22 400.121 1082.09 397.727 1074.22 397.727C1068.94 397.727 1064.28 398.848 1060.22 401.091C1056.22 403.333 1053.06 406.606 1050.76 410.909C1048.52 415.152 1047.37 420.273 1047.31 426.273ZM1231.42 509.727C1217.3 509.727 1205.09 506.727 1194.78 500.727C1184.54 494.667 1176.63 486.242 1171.06 475.455C1165.48 464.606 1162.69 452.03 1162.69 437.727C1162.69 423.303 1165.48 410.697 1171.06 399.909C1176.63 389.061 1184.54 380.636 1194.78 374.636C1205.09 368.576 1217.3 365.545 1231.42 365.545C1245.54 365.545 1257.72 368.576 1267.97 374.636C1278.27 380.636 1286.21 389.061 1291.78 399.909C1297.36 410.697 1300.15 423.303 1300.15 437.727C1300.15 452.03 1297.36 464.606 1291.78 475.455C1286.21 486.242 1278.27 494.667 1267.97 500.727C1257.72 506.727 1245.54 509.727 1231.42 509.727ZM1231.6 479.727C1238.03 479.727 1243.39 477.909 1247.69 474.273C1252 470.576 1255.24 465.545 1257.42 459.182C1259.66 452.818 1260.78 445.576 1260.78 437.455C1260.78 429.333 1259.66 422.091 1257.42 415.727C1255.24 409.364 1252 404.333 1247.69 400.636C1243.39 396.939 1238.03 395.091 1231.6 395.091C1225.12 395.091 1219.66 396.939 1215.24 400.636C1210.88 404.333 1207.57 409.364 1205.33 415.727C1203.15 422.091 1202.06 429.333 1202.06 437.455C1202.06 445.576 1203.15 452.818 1205.33 459.182C1207.57 465.545 1210.88 470.576 1215.24 474.273C1219.66 477.909 1225.12 479.727 1231.6 479.727ZM1414.88 447.545V367.364H1453.6V507H1416.42V481.636H1414.97C1411.81 489.818 1406.57 496.394 1399.24 501.364C1391.97 506.333 1383.09 508.818 1372.6 508.818C1363.27 508.818 1355.06 506.697 1347.97 502.455C1340.88 498.212 1335.33 492.182 1331.33 484.364C1327.39 476.545 1325.39 467.182 1325.33 456.273V367.364H1364.06V449.364C1364.12 457.606 1366.33 464.121 1370.69 468.909C1375.06 473.697 1380.91 476.091 1388.24 476.091C1392.91 476.091 1397.27 475.03 1401.33 472.909C1405.39 470.727 1408.66 467.515 1411.15 463.273C1413.69 459.03 1414.94 453.788 1414.88 447.545ZM1484.58 507V367.364H1522.12V391.727H1523.58C1526.13 383.061 1530.4 376.515 1536.4 372.091C1542.4 367.606 1549.31 365.364 1557.12 365.364C1559.06 365.364 1561.16 365.485 1563.4 365.727C1565.64 365.97 1567.61 366.303 1569.31 366.727V401.091C1567.49 400.545 1564.97 400.061 1561.76 399.636C1558.55 399.212 1555.61 399 1552.94 399C1547.25 399 1542.16 400.242 1537.67 402.727C1533.25 405.152 1529.73 408.545 1527.12 412.909C1524.58 417.273 1523.31 422.303 1523.31 428V507H1484.58Z" fill="url(#paint0_linear_268_10)"/>
<defs>
<linearGradient id="paint0_linear_268_10" x1="-59.9999" y1="-73.5001" x2="1651.04" y2="549.672" gradientUnits="userSpaceOnUse">
<stop stop-color="#00DE8F"/>
<stop offset="1" stop-color="#004A7C"/>
</linearGradient>
</defs>
</svg>
