<svg width="3219" height="250" viewBox="0 0 3219 250" fill="none" xmlns="http://www.w3.org/2000/svg">
<path d="M0.056818 197V10.8182H73.5114C87.572 10.8182 99.572 13.3333 109.511 18.3636C119.511 23.3333 127.117 30.3939 132.33 39.5455C137.602 48.6364 140.239 59.3333 140.239 71.6364C140.239 84 137.572 94.6364 132.239 103.545C126.905 112.394 119.178 119.182 109.057 123.909C98.9962 128.636 86.8144 131 72.5114 131H23.3295V99.3636H66.1477C73.6629 99.3636 79.9053 98.3333 84.875 96.2727C89.8447 94.2121 93.5417 91.1212 95.9659 87C98.4508 82.8788 99.6932 77.7576 99.6932 71.6364C99.6932 65.4545 98.4508 60.2424 95.9659 56C93.5417 51.7576 89.8144 48.5454 84.7841 46.3636C79.8144 44.1212 73.5417 43 65.9659 43H39.4205V197H0.056818ZM100.602 112.273L146.875 197H103.42L58.1477 112.273H100.602ZM228.716 199.727C214.352 199.727 201.989 196.818 191.625 191C181.322 185.121 173.383 176.818 167.807 166.091C162.231 155.303 159.443 142.545 159.443 127.818C159.443 113.455 162.231 100.848 167.807 90C173.383 79.1515 181.231 70.697 191.352 64.6364C201.534 58.5758 213.473 55.5455 227.17 55.5455C236.383 55.5455 244.958 57.0303 252.898 60C260.898 62.9091 267.867 67.303 273.807 73.1818C279.807 79.0606 284.473 86.4545 287.807 95.3636C291.14 104.212 292.807 114.576 292.807 126.455V137.091H174.898V113.091H256.352C256.352 107.515 255.14 102.576 252.716 98.2727C250.292 93.9697 246.928 90.6061 242.625 88.1818C238.383 85.697 233.443 84.4545 227.807 84.4545C221.928 84.4545 216.716 85.8182 212.17 88.5454C207.686 91.2121 204.17 94.8182 201.625 99.3636C199.08 103.848 197.777 108.848 197.716 114.364V137.182C197.716 144.091 198.989 150.061 201.534 155.091C204.14 160.121 207.807 164 212.534 166.727C217.261 169.455 222.867 170.818 229.352 170.818C233.655 170.818 237.595 170.212 241.17 169C244.746 167.788 247.807 165.97 250.352 163.545C252.898 161.121 254.837 158.152 256.17 154.636L291.989 157C290.17 165.606 286.443 173.121 280.807 179.545C275.231 185.909 268.019 190.879 259.17 194.455C250.383 197.97 240.231 199.727 228.716 199.727ZM381.17 199.727C366.867 199.727 354.564 196.697 344.261 190.636C334.019 184.515 326.14 176.03 320.625 165.182C315.17 154.333 312.443 141.848 312.443 127.727C312.443 113.424 315.201 100.879 320.716 90.0909C326.292 79.2424 334.201 70.7879 344.443 64.7273C354.686 58.6061 366.867 55.5455 380.989 55.5455C393.17 55.5455 403.837 57.7576 412.989 62.1818C422.14 66.6061 429.383 72.8182 434.716 80.8182C440.049 88.8182 442.989 98.2121 443.534 109H406.989C405.958 102.03 403.231 96.4242 398.807 92.1818C394.443 87.8788 388.716 85.7273 381.625 85.7273C375.625 85.7273 370.383 87.3636 365.898 90.6364C361.473 93.8485 358.019 98.5455 355.534 104.727C353.049 110.909 351.807 118.394 351.807 127.182C351.807 136.091 353.019 143.667 355.443 149.909C357.928 156.152 361.413 160.909 365.898 164.182C370.383 167.455 375.625 169.091 381.625 169.091C386.049 169.091 390.019 168.182 393.534 166.364C397.11 164.545 400.049 161.909 402.352 158.455C404.716 154.939 406.261 150.727 406.989 145.818H443.534C442.928 156.485 440.019 165.879 434.807 174C429.655 182.061 422.534 188.364 413.443 192.909C404.352 197.455 393.595 199.727 381.17 199.727ZM507.057 10.8182V197H468.33V10.8182H507.057ZM577.898 199.636C568.989 199.636 561.049 198.091 554.08 195C547.11 191.848 541.595 187.212 537.534 181.091C533.534 174.909 531.534 167.212 531.534 158C531.534 150.242 532.958 143.727 535.807 138.455C538.655 133.182 542.534 128.939 547.443 125.727C552.352 122.515 557.928 120.091 564.17 118.455C570.473 116.818 577.08 115.667 583.989 115C592.11 114.152 598.655 113.364 603.625 112.636C608.595 111.848 612.201 110.697 614.443 109.182C616.686 107.667 617.807 105.424 617.807 102.455V101.909C617.807 96.1515 615.989 91.697 612.352 88.5454C608.777 85.3939 603.686 83.8182 597.08 83.8182C590.11 83.8182 584.564 85.3636 580.443 88.4545C576.322 91.4848 573.595 95.303 572.261 99.9091L536.443 97C538.261 88.5151 541.837 81.1818 547.17 75C552.504 68.7576 559.383 63.9697 567.807 60.6364C576.292 57.2424 586.11 55.5455 597.261 55.5455C605.019 55.5455 612.443 56.4545 619.534 58.2727C626.686 60.0909 633.019 62.9091 638.534 66.7273C644.11 70.5455 648.504 75.4545 651.716 81.4545C654.928 87.3939 656.534 94.5151 656.534 102.818V197H619.807V177.636H618.716C616.473 182 613.473 185.848 609.716 189.182C605.958 192.455 601.443 195.03 596.17 196.909C590.898 198.727 584.807 199.636 577.898 199.636ZM588.989 172.909C594.686 172.909 599.716 171.788 604.08 169.545C608.443 167.242 611.867 164.152 614.352 160.273C616.837 156.394 618.08 152 618.08 147.091V132.273C616.867 133.061 615.201 133.788 613.08 134.455C611.019 135.061 608.686 135.636 606.08 136.182C603.473 136.667 600.867 137.121 598.261 137.545C595.655 137.909 593.292 138.242 591.17 138.545C586.625 139.212 582.655 140.273 579.261 141.727C575.867 143.182 573.231 145.152 571.352 147.636C569.473 150.061 568.534 153.091 568.534 156.727C568.534 162 570.443 166.03 574.261 168.818C578.14 171.545 583.049 172.909 588.989 172.909ZM686.58 197V57.3636H725.307V197H686.58ZM706.034 39.3636C700.277 39.3636 695.337 37.4545 691.216 33.6364C687.155 29.7576 685.125 25.1212 685.125 19.7273C685.125 14.3939 687.155 9.81818 691.216 6C695.337 2.12121 700.277 0.181808 706.034 0.181808C711.792 0.181808 716.701 2.12121 720.761 6C724.883 9.81818 726.943 14.3939 726.943 19.7273C726.943 25.1212 724.883 29.7576 720.761 33.6364C716.701 37.4545 711.792 39.3636 706.034 39.3636ZM756.33 197V57.3636H793.239V82H794.875C797.784 73.8182 802.633 67.3636 809.42 62.6364C816.208 57.9091 824.33 55.5455 833.784 55.5455C843.36 55.5455 851.511 57.9394 858.239 62.7273C864.966 67.4545 869.451 73.8788 871.693 82H873.148C875.996 74 881.148 67.6061 888.602 62.8182C896.117 57.9697 904.996 55.5455 915.239 55.5455C928.269 55.5455 938.845 59.697 946.966 68C955.148 76.2424 959.239 87.9394 959.239 103.091V197H920.602V110.727C920.602 102.97 918.542 97.1515 914.42 93.2727C910.299 89.3939 905.148 87.4545 898.966 87.4545C891.936 87.4545 886.451 89.697 882.511 94.1818C878.572 98.6061 876.602 104.455 876.602 111.727V197H839.057V109.909C839.057 103.061 837.087 97.6061 833.148 93.5454C829.269 89.4848 824.148 87.4545 817.784 87.4545C813.481 87.4545 809.602 88.5455 806.148 90.7273C802.754 92.8485 800.057 95.8485 798.057 99.7273C796.057 103.545 795.057 108.03 795.057 113.182V197H756.33ZM1072.99 249.364C1068.08 249.364 1063.47 248.97 1059.17 248.182C1054.93 247.455 1051.41 246.515 1048.62 245.364L1057.35 216.455C1061.9 217.848 1065.99 218.606 1069.62 218.727C1073.32 218.848 1076.5 218 1079.17 216.182C1081.9 214.364 1084.11 211.273 1085.81 206.909L1088.08 201L1037.99 57.3636H1078.72L1107.62 159.909H1109.08L1138.26 57.3636H1179.26L1124.99 212.091C1122.38 219.606 1118.84 226.152 1114.35 231.727C1109.93 237.364 1104.32 241.697 1097.53 244.727C1090.75 247.818 1082.56 249.364 1072.99 249.364ZM1257.67 199.727C1243.55 199.727 1231.34 196.727 1221.03 190.727C1210.79 184.667 1202.88 176.242 1197.31 165.455C1191.73 154.606 1188.94 142.03 1188.94 127.727C1188.94 113.303 1191.73 100.697 1197.31 89.9091C1202.88 79.0606 1210.79 70.6364 1221.03 64.6364C1231.34 58.5758 1243.55 55.5455 1257.67 55.5455C1271.79 55.5455 1283.97 58.5758 1294.22 64.6364C1304.52 70.6364 1312.46 79.0606 1318.03 89.9091C1323.61 100.697 1326.4 113.303 1326.4 127.727C1326.4 142.03 1323.61 154.606 1318.03 165.455C1312.46 176.242 1304.52 184.667 1294.22 190.727C1283.97 196.727 1271.79 199.727 1257.67 199.727ZM1257.85 169.727C1264.28 169.727 1269.64 167.909 1273.94 164.273C1278.25 160.576 1281.49 155.545 1283.67 149.182C1285.91 142.818 1287.03 135.576 1287.03 127.455C1287.03 119.333 1285.91 112.091 1283.67 105.727C1281.49 99.3636 1278.25 94.3333 1273.94 90.6364C1269.64 86.9394 1264.28 85.0909 1257.85 85.0909C1251.37 85.0909 1245.91 86.9394 1241.49 90.6364C1237.13 94.3333 1233.82 99.3636 1231.58 105.727C1229.4 112.091 1228.31 119.333 1228.31 127.455C1228.31 135.576 1229.4 142.818 1231.58 149.182C1233.82 155.545 1237.13 160.576 1241.49 164.273C1245.91 167.909 1251.37 169.727 1257.85 169.727ZM1441.12 137.545V57.3636H1479.85V197H1442.67V171.636H1441.22C1438.06 179.818 1432.82 186.394 1425.49 191.364C1418.22 196.333 1409.34 198.818 1398.85 198.818C1389.52 198.818 1381.31 196.697 1374.22 192.455C1367.13 188.212 1361.58 182.182 1357.58 174.364C1353.64 166.545 1351.64 157.182 1351.58 146.273V57.3636H1390.31V139.364C1390.37 147.606 1392.58 154.121 1396.94 158.909C1401.31 163.697 1407.16 166.091 1414.49 166.091C1419.16 166.091 1423.52 165.03 1427.58 162.909C1431.64 160.727 1434.91 157.515 1437.4 153.273C1439.94 149.03 1441.19 143.788 1441.12 137.545ZM1510.83 197V57.3636H1548.38V81.7273H1549.83C1552.38 73.0606 1556.65 66.5151 1562.65 62.0909C1568.65 57.6061 1575.56 55.3636 1583.38 55.3636C1585.31 55.3636 1587.41 55.4848 1589.65 55.7273C1591.89 55.9697 1593.86 56.303 1595.56 56.7273V91.0909C1593.74 90.5454 1591.22 90.0606 1588.01 89.6364C1584.8 89.2121 1581.86 89 1579.19 89C1573.5 89 1568.41 90.2424 1563.92 92.7273C1559.5 95.1515 1555.98 98.5455 1553.38 102.909C1550.83 107.273 1549.56 112.303 1549.56 118V197H1510.83ZM1702.38 197L1664.38 57.3636H1703.56L1725.19 151.182H1726.47L1749.01 57.3636H1787.47L1810.38 150.636H1811.56L1832.83 57.3636H1871.92L1834.01 197H1793.01L1769.01 109.182H1767.28L1743.28 197H1702.38ZM1932.4 199.636C1923.49 199.636 1915.55 198.091 1908.58 195C1901.61 191.848 1896.09 187.212 1892.03 181.091C1888.03 174.909 1886.03 167.212 1886.03 158C1886.03 150.242 1887.46 143.727 1890.31 138.455C1893.16 133.182 1897.03 128.939 1901.94 125.727C1906.85 122.515 1912.43 120.091 1918.67 118.455C1924.97 116.818 1931.58 115.667 1938.49 115C1946.61 114.152 1953.16 113.364 1958.12 112.636C1963.09 111.848 1966.7 110.697 1968.94 109.182C1971.19 107.667 1972.31 105.424 1972.31 102.455V101.909C1972.31 96.1515 1970.49 91.697 1966.85 88.5454C1963.28 85.3939 1958.19 83.8182 1951.58 83.8182C1944.61 83.8182 1939.06 85.3636 1934.94 88.4545C1930.82 91.4848 1928.09 95.303 1926.76 99.9091L1890.94 97C1892.76 88.5151 1896.34 81.1818 1901.67 75C1907 68.7576 1913.88 63.9697 1922.31 60.6364C1930.79 57.2424 1940.61 55.5455 1951.76 55.5455C1959.52 55.5455 1966.94 56.4545 1974.03 58.2727C1981.19 60.0909 1987.52 62.9091 1993.03 66.7273C1998.61 70.5455 2003 75.4545 2006.22 81.4545C2009.43 87.3939 2011.03 94.5151 2011.03 102.818V197H1974.31V177.636H1973.22C1970.97 182 1967.97 185.848 1964.22 189.182C1960.46 192.455 1955.94 195.03 1950.67 196.909C1945.4 198.727 1939.31 199.636 1932.4 199.636ZM1943.49 172.909C1949.19 172.909 1954.22 171.788 1958.58 169.545C1962.94 167.242 1966.37 164.152 1968.85 160.273C1971.34 156.394 1972.58 152 1972.58 147.091V132.273C1971.37 133.061 1969.7 133.788 1967.58 134.455C1965.52 135.061 1963.19 135.636 1960.58 136.182C1957.97 136.667 1955.37 137.121 1952.76 137.545C1950.16 137.909 1947.79 138.242 1945.67 138.545C1941.13 139.212 1937.16 140.273 1933.76 141.727C1930.37 143.182 1927.73 145.152 1925.85 147.636C1923.97 150.061 1923.03 153.091 1923.03 156.727C1923.03 162 1924.94 166.03 1928.76 168.818C1932.64 171.545 1937.55 172.909 1943.49 172.909ZM2157.26 97.1818L2121.81 99.3636C2121.2 96.3333 2119.9 93.6061 2117.9 91.1818C2115.9 88.697 2113.26 86.7273 2109.99 85.2727C2106.78 83.7576 2102.93 83 2098.44 83C2092.44 83 2087.38 84.2727 2083.26 86.8182C2079.14 89.303 2077.08 92.6364 2077.08 96.8182C2077.08 100.152 2078.41 102.97 2081.08 105.273C2083.75 107.576 2088.32 109.424 2094.81 110.818L2120.08 115.909C2133.66 118.697 2143.78 123.182 2150.44 129.364C2157.11 135.545 2160.44 143.667 2160.44 153.727C2160.44 162.879 2157.75 170.909 2152.35 177.818C2147.02 184.727 2139.69 190.121 2130.35 194C2121.08 197.818 2110.38 199.727 2098.26 199.727C2079.78 199.727 2065.05 195.879 2054.08 188.182C2043.17 180.424 2036.78 169.879 2034.9 156.545L2072.99 154.545C2074.14 160.182 2076.93 164.485 2081.35 167.455C2085.78 170.364 2091.44 171.818 2098.35 171.818C2105.14 171.818 2110.59 170.515 2114.72 167.909C2118.9 165.242 2121.02 161.818 2121.08 157.636C2121.02 154.121 2119.53 151.242 2116.62 149C2113.72 146.697 2109.23 144.939 2103.17 143.727L2078.99 138.909C2065.35 136.182 2055.2 131.455 2048.53 124.727C2041.93 118 2038.62 109.424 2038.62 99C2038.62 90.0303 2041.05 82.303 2045.9 75.8182C2050.81 69.3333 2057.69 64.3333 2066.53 60.8182C2075.44 57.303 2085.87 55.5455 2097.81 55.5455C2115.44 55.5455 2129.32 59.2727 2139.44 66.7273C2149.63 74.1818 2155.56 84.3333 2157.26 97.1818ZM2259.1 57.3636V86.4545H2175.01V57.3636H2259.1ZM2194.1 23.9091H2232.83V154.091C2232.83 157.667 2233.38 160.455 2234.47 162.455C2235.56 164.394 2237.07 165.758 2239.01 166.545C2241.01 167.333 2243.31 167.727 2245.92 167.727C2247.74 167.727 2249.56 167.576 2251.38 167.273C2253.19 166.909 2254.59 166.636 2255.56 166.455L2261.65 195.273C2259.71 195.879 2256.98 196.576 2253.47 197.364C2249.95 198.212 2245.68 198.727 2240.65 198.909C2231.31 199.273 2223.13 198.03 2216.1 195.182C2209.13 192.333 2203.71 187.909 2199.83 181.909C2195.95 175.909 2194.04 168.333 2194.1 159.182V23.9091ZM2346.47 199.727C2332.1 199.727 2319.74 196.818 2309.38 191C2299.07 185.121 2291.13 176.818 2285.56 166.091C2279.98 155.303 2277.19 142.545 2277.19 127.818C2277.19 113.455 2279.98 100.848 2285.56 90C2291.13 79.1515 2298.98 70.697 2309.1 64.6364C2319.28 58.5758 2331.22 55.5455 2344.92 55.5455C2354.13 55.5455 2362.71 57.0303 2370.65 60C2378.65 62.9091 2385.62 67.303 2391.56 73.1818C2397.56 79.0606 2402.22 86.4545 2405.56 95.3636C2408.89 104.212 2410.56 114.576 2410.56 126.455V137.091H2292.65V113.091H2374.1C2374.1 107.515 2372.89 102.576 2370.47 98.2727C2368.04 93.9697 2364.68 90.6061 2360.38 88.1818C2356.13 85.697 2351.19 84.4545 2345.56 84.4545C2339.68 84.4545 2334.47 85.8182 2329.92 88.5454C2325.44 91.2121 2321.92 94.8182 2319.38 99.3636C2316.83 103.848 2315.53 108.848 2315.47 114.364V137.182C2315.47 144.091 2316.74 150.061 2319.28 155.091C2321.89 160.121 2325.56 164 2330.28 166.727C2335.01 169.455 2340.62 170.818 2347.1 170.818C2351.41 170.818 2355.34 170.212 2358.92 169C2362.5 167.788 2365.56 165.97 2368.1 163.545C2370.65 161.121 2372.59 158.152 2373.92 154.636L2409.74 157C2407.92 165.606 2404.19 173.121 2398.56 179.545C2392.98 185.909 2385.77 190.879 2376.92 194.455C2368.13 197.97 2357.98 199.727 2346.47 199.727ZM2487.28 199.273C2476.68 199.273 2467.07 196.545 2458.47 191.091C2449.92 185.576 2443.13 177.485 2438.1 166.818C2433.13 156.091 2430.65 142.939 2430.65 127.364C2430.65 111.364 2433.22 98.0606 2438.38 87.4545C2443.53 76.7879 2450.38 68.8182 2458.92 63.5455C2467.53 58.2121 2476.95 55.5455 2487.19 55.5455C2495.01 55.5455 2501.53 56.8788 2506.74 59.5455C2512.01 62.1515 2516.25 65.4242 2519.47 69.3636C2522.74 73.2424 2525.22 77.0606 2526.92 80.8182H2528.1V10.8182H2566.74V197H2528.56V174.636H2526.92C2525.1 178.515 2522.53 182.364 2519.19 186.182C2515.92 189.939 2511.65 193.061 2506.38 195.545C2501.16 198.03 2494.8 199.273 2487.28 199.273ZM2499.56 168.455C2505.8 168.455 2511.07 166.758 2515.38 163.364C2519.74 159.909 2523.07 155.091 2525.38 148.909C2527.74 142.727 2528.92 135.485 2528.92 127.182C2528.92 118.879 2527.77 111.667 2525.47 105.545C2523.16 99.4242 2519.83 94.697 2515.47 91.3636C2511.1 88.0303 2505.8 86.3636 2499.56 86.3636C2493.19 86.3636 2487.83 88.0909 2483.47 91.5454C2479.1 95 2475.8 99.7879 2473.56 105.909C2471.31 112.03 2470.19 119.121 2470.19 127.182C2470.19 135.303 2471.31 142.485 2473.56 148.727C2475.86 154.909 2479.16 159.758 2483.47 163.273C2487.83 166.727 2493.19 168.455 2499.56 168.455ZM2696.56 116.273V197H2657.83V10.8182H2695.47V82H2697.1C2700.25 73.7576 2705.34 67.303 2712.38 62.6364C2719.41 57.9091 2728.22 55.5455 2738.83 55.5455C2748.53 55.5455 2756.98 57.6667 2764.19 61.9091C2771.47 66.0909 2777.1 72.1212 2781.1 80C2785.16 87.8182 2787.16 97.1818 2787.1 108.091V197H2748.38V115C2748.44 106.394 2746.25 99.697 2741.83 94.9091C2737.47 90.1212 2731.34 87.7273 2723.47 87.7273C2718.19 87.7273 2713.53 88.8485 2709.47 91.0909C2705.47 93.3333 2702.31 96.6061 2700.01 100.909C2697.77 105.152 2696.62 110.273 2696.56 116.273ZM2880.67 199.727C2866.55 199.727 2854.34 196.727 2844.03 190.727C2833.79 184.667 2825.88 176.242 2820.31 165.455C2814.73 154.606 2811.94 142.03 2811.94 127.727C2811.94 113.303 2814.73 100.697 2820.31 89.9091C2825.88 79.0606 2833.79 70.6364 2844.03 64.6364C2854.34 58.5758 2866.55 55.5455 2880.67 55.5455C2894.79 55.5455 2906.97 58.5758 2917.22 64.6364C2927.52 70.6364 2935.46 79.0606 2941.03 89.9091C2946.61 100.697 2949.4 113.303 2949.4 127.727C2949.4 142.03 2946.61 154.606 2941.03 165.455C2935.46 176.242 2927.52 184.667 2917.22 190.727C2906.97 196.727 2894.79 199.727 2880.67 199.727ZM2880.85 169.727C2887.28 169.727 2892.64 167.909 2896.94 164.273C2901.25 160.576 2904.49 155.545 2906.67 149.182C2908.91 142.818 2910.03 135.576 2910.03 127.455C2910.03 119.333 2908.91 112.091 2906.67 105.727C2904.49 99.3636 2901.25 94.3333 2896.94 90.6364C2892.64 86.9394 2887.28 85.0909 2880.85 85.0909C2874.37 85.0909 2868.91 86.9394 2864.49 90.6364C2860.13 94.3333 2856.82 99.3636 2854.58 105.727C2852.4 112.091 2851.31 119.333 2851.31 127.455C2851.31 135.576 2852.4 142.818 2854.58 149.182C2856.82 155.545 2860.13 160.576 2864.49 164.273C2868.91 167.909 2874.37 169.727 2880.85 169.727ZM3064.12 137.545V57.3636H3102.85V197H3065.67V171.636H3064.22C3061.06 179.818 3055.82 186.394 3048.49 191.364C3041.22 196.333 3032.34 198.818 3021.85 198.818C3012.52 198.818 3004.31 196.697 2997.22 192.455C2990.13 188.212 2984.58 182.182 2980.58 174.364C2976.64 166.545 2974.64 157.182 2974.58 146.273V57.3636H3013.31V139.364C3013.37 147.606 3015.58 154.121 3019.94 158.909C3024.31 163.697 3030.16 166.091 3037.49 166.091C3042.16 166.091 3046.52 165.03 3050.58 162.909C3054.64 160.727 3057.91 157.515 3060.4 153.273C3062.94 149.03 3064.19 143.788 3064.12 137.545ZM3133.83 197V57.3636H3171.38V81.7273H3172.83C3175.38 73.0606 3179.65 66.5151 3185.65 62.0909C3191.65 57.6061 3198.56 55.3636 3206.38 55.3636C3208.31 55.3636 3210.41 55.4848 3212.65 55.7273C3214.89 55.9697 3216.86 56.303 3218.56 56.7273V91.0909C3216.74 90.5454 3214.22 90.0606 3211.01 89.6364C3207.8 89.2121 3204.86 89 3202.19 89C3196.5 89 3191.41 90.2424 3186.92 92.7273C3182.5 95.1515 3178.98 98.5455 3176.38 102.909C3173.83 107.273 3172.56 112.303 3172.56 118V197H3133.83Z" fill="url(#paint0_linear_268_10)"/>
<defs>
<linearGradient id="paint0_linear_268_10" x1="-62" y1="-51" x2="1194.89" y2="1726.02" gradientUnits="userSpaceOnUse">
<stop stop-color="#00DE8F"/>
<stop offset="1" stop-color="#004A7C"/>
</linearGradient>
</defs>
</svg>
