<svg width="17" height="17" viewBox="0 0 17 17" fill="none" xmlns="http://www.w3.org/2000/svg">
<g clip-path="url(#clip0_731_7251)">
<path d="M16.3333 4.18302C15.7314 4.44552 15.0949 4.61998 14.4433 4.70102C15.1299 4.29364 15.6433 3.64858 15.8863 2.88802C15.2433 3.26935 14.5398 3.53789 13.8063 3.68202C13.3565 3.2018 12.7727 2.86794 12.1307 2.72381C11.4888 2.57969 10.8183 2.63196 10.2064 2.87384C9.59455 3.11572 9.06957 3.53603 8.69968 4.08015C8.32978 4.62428 8.13208 5.26707 8.13225 5.92502C8.13225 6.18502 8.15425 6.43502 8.20825 6.67302C6.90333 6.60904 5.62661 6.27036 4.46155 5.67913C3.2965 5.0879 2.26935 4.25743 1.44725 3.24202C1.02607 3.96388 0.895861 4.81913 1.08314 5.63362C1.27041 6.44811 1.76109 7.16061 2.45525 7.62602C1.93601 7.61209 1.42773 7.47353 0.973252 7.22202V7.25802C0.974122 8.01545 1.23592 8.74945 1.71457 9.33648C2.19322 9.9235 2.8595 10.3277 3.60125 10.481C3.32064 10.555 3.03144 10.5913 2.74125 10.589C2.53284 10.5927 2.32464 10.5739 2.12025 10.533C2.33219 11.184 2.74074 11.7534 3.28965 12.1626C3.83855 12.5718 4.50081 12.8008 5.18525 12.818C4.02419 13.7261 2.59223 14.2186 1.11825 14.217C0.849252 14.217 0.591252 14.205 0.333252 14.172C1.83313 15.1386 3.58093 15.6498 5.36525 15.644C11.4013 15.644 14.7013 10.644 14.7013 6.31002C14.7013 6.16502 14.6963 6.02502 14.6893 5.88602C15.3362 5.423 15.8933 4.8459 16.3333 4.18302Z" fill="#03A9F4"/>
</g>
<defs>
<clipPath id="clip0_731_7251">
<rect width="16" height="16" fill="white" transform="translate(0.333252 0.644012)"/>
</clipPath>
</defs>
</svg>
